<svg width="17" height="17" viewBox="0 0 17 17" fill="none" xmlns="http://www.w3.org/2000/svg">
<g id="heroicons-micro/bars-3-bottom-right">
<path id="Rectangle 4920 (Stroke)" fill-rule="evenodd" clip-rule="evenodd" d="M2.5 4.25C2.5 3.83579 2.83579 3.5 3.25 3.5H13.75C14.1642 3.5 14.5 3.83579 14.5 4.25C14.5 4.66421 14.1642 5 13.75 5H3.25C2.83579 5 2.5 4.66421 2.5 4.25ZM2.5 8.5C2.5 8.08579 2.83579 7.75 3.25 7.75H13.75C14.1642 7.75 14.5 8.08579 14.5 8.5C14.5 8.91421 14.1642 9.25 13.75 9.25H3.25C2.83579 9.25 2.5 8.91421 2.5 8.5ZM8.5 12.75C8.5 12.3358 8.83579 12 9.25 12H13.75C14.1642 12 14.5 12.3358 14.5 12.75C14.5 13.1642 14.1642 13.5 13.75 13.5H9.25C8.83579 13.5 8.5 13.1642 8.5 12.75Z" fill="white"/>
</g>
</svg>
