<svg width="450" height="360" viewBox="0 0 450 360" fill="none" xmlns="http://www.w3.org/2000/svg">
<path fill-rule="evenodd" clip-rule="evenodd" d="M163.857 192.183C172.093 191.411 178.546 184.549 178.546 176.208C178.546 167.352 171.27 160.161 162.307 160.161C153.345 160.161 146.069 167.352 146.069 176.208C146.069 180.246 147.581 183.937 150.075 186.758C148.83 189.271 147.482 192.036 146.104 194.942C144.711 197.88 143.279 200.949 142.014 204.093C140.307 208.333 138.822 212.65 137.496 216.663C137.032 218.066 136.59 219.432 136.173 220.745C129.761 211.202 120.06 196.897 109.125 181.225C104.172 174.126 98.9775 166.746 93.5877 159.502C86.3178 149.73 78.7969 140.15 71.7894 131.321C64.9447 122.697 60.0763 116.958 56.6567 113.148C60.5627 107.972 62.8767 101.553 62.8767 94.6037C62.8767 77.4569 48.7896 63.5363 31.4382 63.5363C14.0871 63.5363 0 77.4569 0 94.6037C0 111.75 14.0871 125.671 31.4382 125.671C32.6512 125.671 33.8481 125.603 35.0261 125.471C37.0906 133.399 40.3628 145.026 45.4438 161.153C49.7149 174.71 54.3169 189.354 59.5845 203.79C64.8514 218.223 70.7287 232.417 76.2322 245.529C85.0357 266.502 93.087 284.56 98.1163 295.643C96.3632 297.601 95.299 300.176 95.299 302.996V348.898C95.299 355.03 100.329 360 106.533 360H343.467C349.671 360 354.701 355.03 354.701 348.898V302.996C354.701 300.17 353.633 297.591 351.873 295.631C356.893 284.574 364.976 266.454 373.819 245.388C379.318 232.289 385.191 218.109 390.452 203.69C395.715 189.268 400.312 174.637 404.578 161.094C409.653 144.985 412.9 133.379 414.94 125.467C416.128 125.602 417.337 125.671 418.562 125.671C435.913 125.671 450 111.75 450 94.6037C450 77.4569 435.913 63.5363 418.562 63.5363C401.211 63.5363 387.124 77.4569 387.124 94.6037C387.124 101.936 389.7 108.679 394.006 113.995C390.215 118.151 385.197 123.856 378.682 131.61C371.417 140.257 363.629 149.644 356.377 159.453C349.122 169.265 342.475 179.47 336.308 188.918C327.893 201.809 320.66 213.394 315.6 221.637C314.882 221.54 314.147 221.491 313.402 221.491C313.362 221.491 313.323 221.491 313.283 221.491C312.813 219.987 312.308 218.405 311.772 216.769C310.506 212.903 309.085 208.747 307.443 204.666C306.225 201.64 304.84 198.689 303.493 195.865C302.046 192.831 300.633 189.958 299.342 187.383C302.182 184.493 303.932 180.551 303.932 176.208C303.932 167.352 296.655 160.161 287.693 160.161C278.73 160.161 271.454 167.352 271.454 176.208C271.454 184.316 277.551 191.027 285.459 192.104C286.359 195.02 287.401 198.3 288.544 201.744C289.529 204.711 290.575 207.795 291.794 210.82C293.438 214.901 295.297 218.884 297.064 222.553C298.079 224.659 299.066 226.655 299.992 228.489C298.208 231.065 297.163 234.182 297.163 237.538C297.163 246.394 304.439 253.585 313.402 253.585C322.364 253.585 329.641 246.394 329.641 237.538C329.641 234.429 328.744 231.526 327.193 229.066C333.596 221.862 342.392 211.812 352.048 200.337C359.323 191.693 367.184 182.369 374.484 172.59C377.871 168.053 381.135 163.434 384.279 158.843C379.301 170.694 374.062 183.306 369.334 196.124C364.022 210.525 359.335 225.129 355.061 238.668C348.038 260.916 342.401 280.3 339.111 291.894H231.893C233.116 284.763 234.895 269.529 235.823 238.651C236.387 219.888 236.923 199.612 236.808 179.324C236.693 159.034 235.888 138.767 235.152 120.009C234.187 95.4046 233.078 77.7527 232.201 66.1768C233.652 69.7005 235.176 73.3129 236.815 76.8777C239.482 82.675 242.36 88.3694 245.069 93.6176C248.248 99.7754 251.211 105.295 253.533 109.546C250.309 112.479 248.287 116.685 248.287 121.353C248.287 130.21 255.564 137.4 264.526 137.4C273.489 137.4 280.765 130.21 280.765 121.353C280.765 113.2 274.599 106.46 266.629 105.439C264.862 100.743 262.385 94.3055 259.481 87.1457C257.263 81.6771 254.814 75.7898 252.149 69.992C250.173 65.6932 248.033 61.4743 245.962 57.4358C245.554 56.6412 245.167 55.8941 244.799 55.1931C251.899 49.4941 256.438 40.8006 256.438 31.0674C256.438 13.9209 242.351 0 225 0C207.649 0 193.562 13.9209 193.562 31.0674C193.562 40.8011 198.101 49.4955 205.201 55.1937C204.833 55.8957 204.445 56.6428 204.039 57.4358C201.967 61.4743 199.827 65.6932 197.851 69.992C195.186 75.7898 192.738 81.6771 190.519 87.1457C187.615 94.3055 185.138 100.743 183.371 105.439C175.401 106.46 169.235 113.2 169.235 121.353C169.235 130.21 176.512 137.4 185.474 137.4C194.437 137.4 201.713 130.21 201.713 121.353C201.713 116.685 199.691 112.479 196.467 109.546C198.789 105.295 201.752 99.7754 204.931 93.6176C207.641 88.3694 210.518 82.675 213.185 76.8777C214.957 73.0257 216.593 69.1183 218.149 65.3265C217.408 76.8822 216.467 94.8232 215.697 120.091C215.124 138.856 214.495 159.128 214.557 179.418C214.619 199.707 215.331 219.977 216.059 238.735C217.253 269.524 218.228 284.748 218.801 291.894H110.905C107.604 280.271 101.983 260.957 94.9905 238.808C90.7124 225.257 86.0199 210.639 80.7031 196.224C76.0766 183.681 70.9611 171.335 66.0787 159.702C69.1443 164 72.286 168.337 75.4781 172.64C80.8579 179.892 86.4273 187 91.7971 193.796C103.602 208.736 114.464 222.117 121.756 231.022C120.859 233.013 120.359 235.218 120.359 237.538C120.359 246.394 127.636 253.585 136.598 253.585C145.561 253.585 152.837 246.394 152.837 237.538C152.837 233.909 151.615 230.559 149.556 227.869C150.402 226.171 151.292 224.353 152.204 222.448C154.031 218.631 155.954 214.487 157.662 210.248C158.929 207.104 160.022 203.902 161.053 200.821C162.073 197.775 163.016 194.853 163.857 192.183ZM263.42 325.947V311.031H225.688V325.947H263.42V340.863H301.151V325.947H263.42ZM187.957 325.947V340.863H225.688V325.947H187.957V311.031H150.225V325.947H112.493V340.863H150.225V325.947H187.957ZM301.151 311.031H338.883V325.947H301.151V311.031ZM418.562 85.5299C423.629 85.5299 427.744 89.5959 427.744 94.6037C427.744 99.6115 423.629 103.677 418.562 103.677C413.494 103.677 409.38 99.6115 409.38 94.6037C409.38 89.5959 413.494 85.5299 418.562 85.5299ZM31.4379 85.5299C36.5055 85.5299 40.62 89.5959 40.62 94.6037C40.62 99.6115 36.5055 103.677 31.4379 103.677C26.3703 103.677 22.2561 99.6115 22.2561 94.6037C22.2561 89.5959 26.3703 85.5299 31.4379 85.5299ZM225 21.9939C230.067 21.9939 234.182 26.0596 234.182 31.0674C234.182 36.0752 230.067 40.1412 225 40.1412C219.932 40.1412 215.818 36.0752 215.818 31.0674C215.818 26.0596 219.932 21.9939 225 21.9939Z" fill="white"/>
</svg>
