<svg width="36" height="35" viewBox="0 0 36 35" fill="none" xmlns="http://www.w3.org/2000/svg">
<g id="Core-Crown">
<path id="Vector" fill-rule="evenodd" clip-rule="evenodd" d="M19.6433 2.21847C19.4351 2.21847 19.2664 2.04905 19.2664 1.84004V0.378433C19.2664 0.169428 19.0976 0 18.8895 0H17.1105C16.9023 0 16.7336 0.169428 16.7336 0.378433V1.84004C16.7336 2.04905 16.5649 2.21847 16.3567 2.21847H14.901C14.6929 2.21847 14.5241 2.3879 14.5241 2.59691V4.3831C14.5241 4.5921 14.6929 4.76153 14.901 4.76153H16.3567C16.5649 4.76153 16.7336 4.93096 16.7336 5.13997V6.60157C16.7336 6.81058 16.9023 6.98001 17.1105 6.98001H18.8895C19.0976 6.98001 19.2664 6.81058 19.2664 6.60157V5.13997C19.2664 4.93096 19.4351 4.76153 19.6433 4.76153H21.099C21.3071 4.76153 21.4759 4.5921 21.4759 4.3831V2.59691C21.4759 2.3879 21.3071 2.21847 21.099 2.21847H19.6433Z" fill="#46C8FF"/>
<g id="Group">
<path id="Vector_2" fill-rule="evenodd" clip-rule="evenodd" d="M17.5506 24.9356V11.5278H16.2062V24.9356H17.5506Z" fill="white"/>
<path id="Vector_3" fill-rule="evenodd" clip-rule="evenodd" d="M11.1324 14.5986C10.2736 14.3877 9.63541 13.6092 9.63541 12.6822C9.63541 11.5934 10.5158 10.7095 11.6002 10.7095C12.6845 10.7095 13.5649 11.5934 13.5649 12.6822C13.5649 13.603 12.9353 14.3773 12.085 14.5943L12.0757 17.4151L14.5232 19.8329C14.6142 19.9228 14.6655 20.0456 14.6655 20.1738V24.9352H13.7128V20.3742L11.2647 17.9558C11.1733 17.8655 11.122 17.742 11.1224 17.6133L11.1324 14.5986ZM11.6002 11.6958C12.1424 11.6958 12.5825 12.1378 12.5825 12.6822C12.5825 13.2266 12.1424 13.6686 11.6002 13.6686C11.058 13.6686 10.6178 13.2266 10.6178 12.6822C10.6178 12.1378 11.058 11.6958 11.6002 11.6958Z" fill="white"/>
<path id="Vector_4" fill-rule="evenodd" clip-rule="evenodd" d="M11.1324 14.5986C10.2736 14.3877 9.63541 13.6092 9.63541 12.6822C9.63541 11.5934 10.5158 10.7095 11.6002 10.7095C12.6845 10.7095 13.5649 11.5934 13.5649 12.6822C13.5649 13.603 12.9353 14.3773 12.085 14.5943L12.0757 17.4151L14.5232 19.8329C14.6142 19.9228 14.6655 20.0456 14.6655 20.1738V24.9352H13.7128V20.3742L11.2647 17.9558C11.1733 17.8655 11.122 17.742 11.1224 17.6133L11.1324 14.5986ZM11.6002 11.6958C12.1424 11.6958 12.5825 12.1378 12.5825 12.6822C12.5825 13.2266 12.1424 13.6686 11.6002 13.6686C11.058 13.6686 10.6178 13.2266 10.6178 12.6822C10.6178 12.1378 11.058 11.6958 11.6002 11.6958Z" fill="white"/>
<path id="Vector_5" fill-rule="evenodd" clip-rule="evenodd" d="M5.44637 14.5951C4.59465 14.3791 3.96352 13.6041 3.96352 12.6822C3.96352 11.5934 4.84389 10.7095 5.92826 10.7095C7.01265 10.7095 7.89302 11.5934 7.89302 12.6822C7.89302 13.6081 7.25634 14.3859 6.39902 14.5978V16.366L9.8964 19.8776C9.98573 19.9673 10.0359 20.0889 10.0359 20.2158V22.0324L10.8579 22.8577C10.9472 22.9474 10.9974 23.069 10.9974 23.1959V24.9352H10.0447V23.394L9.22278 22.5687C9.13345 22.479 9.08326 22.3573 9.08326 22.2305V20.4139L5.58589 16.9023C5.49655 16.8126 5.44637 16.691 5.44637 16.5641V14.5951ZM5.92826 11.6958C6.47046 11.6958 6.91065 12.1378 6.91065 12.6822C6.91065 13.2266 6.47046 13.6686 5.92826 13.6686C5.38607 13.6686 4.94589 13.2266 4.94589 12.6822C4.94589 12.1378 5.38607 11.6958 5.92826 11.6958Z" fill="white"/>
<path id="Vector_6" fill-rule="evenodd" clip-rule="evenodd" d="M5.44637 14.5951C4.59465 14.3791 3.96352 13.6041 3.96352 12.6822C3.96352 11.5934 4.84389 10.7095 5.92826 10.7095C7.01265 10.7095 7.89302 11.5934 7.89302 12.6822C7.89302 13.6081 7.25634 14.3859 6.39902 14.5978V16.366L9.8964 19.8776C9.98573 19.9673 10.0359 20.0889 10.0359 20.2158V22.0324L10.8579 22.8577C10.9472 22.9474 10.9974 23.069 10.9974 23.1959V24.9352H10.0447V23.394L9.22278 22.5687C9.13345 22.479 9.08326 22.3573 9.08326 22.2305V20.4139L5.58589 16.9023C5.49655 16.8126 5.44637 16.691 5.44637 16.5641V14.5951ZM5.92826 11.6958C6.47046 11.6958 6.91065 12.1378 6.91065 12.6822C6.91065 13.2266 6.47046 13.6686 5.92826 13.6686C5.38607 13.6686 4.94589 13.2266 4.94589 12.6822C4.94589 12.1378 5.38607 11.6958 5.92826 11.6958Z" fill="white"/>
<path id="Vector_7" fill-rule="evenodd" clip-rule="evenodd" d="M3.80332 7.98784C3.86854 8.47422 4.09924 8.90826 4.43654 9.23076C2.84743 10.4564 1.79224 12.3418 1.79657 14.8391C1.80003 16.2488 2.75429 17.138 3.87298 18.0099C5.04736 18.9253 6.41783 19.7998 7.42391 20.9846C8.29022 22.0048 8.9018 23.2429 8.94398 24.8985L7.77541 24.9354C7.72568 23.5946 7.21469 22.5995 6.50418 21.7805C5.3207 20.4165 3.61797 19.508 2.37254 18.4134C1.27958 17.4528 0.51706 16.3566 0.500692 14.8477C0.465126 11.764 1.80291 9.4561 3.80332 7.98784ZM5.91625 6.16741C6.77055 6.16741 7.46413 6.86381 7.46413 7.72158C7.46413 8.57935 6.77055 9.27576 5.91625 9.27576C5.06195 9.27576 4.36837 8.57935 4.36837 7.72158C4.36837 6.86381 5.06195 6.16741 5.91625 6.16741ZM14.2599 8.67796C12.315 7.63714 10.05 7.32567 7.98386 7.70119C7.98313 7.19168 7.80201 6.7243 7.50131 6.36009C9.92581 5.84273 12.6192 6.15553 14.9336 7.36055L14.9472 7.36763C14.5333 8.0847 14.6748 7.7913 14.2626 8.67284L14.2599 8.67796Z" fill="white"/>
</g>
<g id="Group_2">
<path id="Vector_8" fill-rule="evenodd" clip-rule="evenodd" d="M18.4494 24.9356V11.5278H19.7938V24.9356H18.4494Z" fill="white"/>
<path id="Vector_9" fill-rule="evenodd" clip-rule="evenodd" d="M24.8678 14.5986C25.7266 14.3877 26.3647 13.6092 26.3647 12.6822C26.3647 11.5934 25.4843 10.7095 24.4 10.7095C23.3156 10.7095 22.4352 11.5934 22.4352 12.6822C22.4352 13.603 23.0649 14.3773 23.9151 14.5943L23.9244 17.4151L21.4769 19.8329C21.3859 19.9228 21.3346 20.0456 21.3346 20.1738V24.9352H22.2873V20.3742L24.7354 17.9558C24.8268 17.8655 24.8781 17.742 24.8777 17.6133L24.8678 14.5986ZM24.4 11.6958C23.8578 11.6958 23.4176 12.1378 23.4176 12.6822C23.4176 13.2266 23.8578 13.6686 24.4 13.6686C24.9422 13.6686 25.3823 13.2266 25.3823 12.6822C25.3823 12.1378 24.9422 11.6958 24.4 11.6958Z" fill="white"/>
<path id="Vector_10" fill-rule="evenodd" clip-rule="evenodd" d="M24.8678 14.5986C25.7266 14.3877 26.3647 13.6092 26.3647 12.6822C26.3647 11.5934 25.4843 10.7095 24.4 10.7095C23.3156 10.7095 22.4352 11.5934 22.4352 12.6822C22.4352 13.603 23.0649 14.3773 23.9151 14.5943L23.9244 17.4151L21.4769 19.8329C21.3859 19.9228 21.3346 20.0456 21.3346 20.1738V24.9352H22.2873V20.3742L24.7354 17.9558C24.8268 17.8655 24.8781 17.742 24.8777 17.6133L24.8678 14.5986ZM24.4 11.6958C23.8578 11.6958 23.4176 12.1378 23.4176 12.6822C23.4176 13.2266 23.8578 13.6686 24.4 13.6686C24.9422 13.6686 25.3823 13.2266 25.3823 12.6822C25.3823 12.1378 24.9422 11.6958 24.4 11.6958Z" fill="white"/>
<path id="Vector_11" fill-rule="evenodd" clip-rule="evenodd" d="M30.5537 14.5951C31.4054 14.3791 32.0366 13.6041 32.0366 12.6822C32.0366 11.5934 31.1562 10.7095 30.0718 10.7095C28.9874 10.7095 28.107 11.5934 28.107 12.6822C28.107 13.6081 28.7437 14.3859 29.601 14.5978V16.366L26.1037 19.8776C26.0143 19.9673 25.9642 20.0889 25.9642 20.2158V22.0324L25.1422 22.8577C25.0529 22.9474 25.0027 23.069 25.0027 23.1959V24.9352H25.9553V23.394L26.7773 22.5687C26.8666 22.479 26.9168 22.3573 26.9168 22.2305V20.4139L30.4142 16.9023C30.5035 16.8126 30.5537 16.691 30.5537 16.5641V14.5951ZM30.0718 11.6958C29.5296 11.6958 29.0894 12.1378 29.0894 12.6822C29.0894 13.2266 29.5296 13.6686 30.0718 13.6686C30.614 13.6686 31.0542 13.2266 31.0542 12.6822C31.0542 12.1378 30.614 11.6958 30.0718 11.6958Z" fill="white"/>
<path id="Vector_12" fill-rule="evenodd" clip-rule="evenodd" d="M30.5537 14.5951C31.4054 14.3791 32.0366 13.6041 32.0366 12.6822C32.0366 11.5934 31.1562 10.7095 30.0718 10.7095C28.9874 10.7095 28.107 11.5934 28.107 12.6822C28.107 13.6081 28.7437 14.3859 29.601 14.5978V16.366L26.1037 19.8776C26.0143 19.9673 25.9642 20.0889 25.9642 20.2158V22.0324L25.1422 22.8577C25.0529 22.9474 25.0027 23.069 25.0027 23.1959V24.9352H25.9553V23.394L26.7773 22.5687C26.8666 22.479 26.9168 22.3573 26.9168 22.2305V20.4139L30.4142 16.9023C30.5035 16.8126 30.5537 16.691 30.5537 16.5641V14.5951ZM30.0718 11.6958C29.5296 11.6958 29.0894 12.1378 29.0894 12.6822C29.0894 13.2266 29.5296 13.6686 30.0718 13.6686C30.614 13.6686 31.0542 13.2266 31.0542 12.6822C31.0542 12.1378 30.614 11.6958 30.0718 11.6958Z" fill="white"/>
<path id="Vector_13" fill-rule="evenodd" clip-rule="evenodd" d="M32.1967 7.98784C32.1315 8.47422 31.9007 8.90826 31.5634 9.23076C33.1526 10.4564 34.2077 12.3418 34.2034 14.8391C34.2 16.2488 33.2457 17.138 32.127 18.0099C30.9526 18.9253 29.5822 19.7998 28.5761 20.9846C27.7098 22.0048 27.0982 23.2429 27.056 24.8985L28.2246 24.9354C28.2743 23.5946 28.7853 22.5995 29.4958 21.7805C30.6793 20.4165 32.382 19.508 33.6275 18.4134C34.7204 17.4528 35.4829 16.3566 35.4993 14.8477C35.5349 11.764 34.1971 9.4561 32.1967 7.98784ZM30.0837 6.16741C29.2294 6.16741 28.5358 6.86381 28.5358 7.72158C28.5358 8.57935 29.2294 9.27576 30.0837 9.27576C30.938 9.27576 31.6316 8.57935 31.6316 7.72158C31.6316 6.86381 30.938 6.16741 30.0837 6.16741ZM21.7401 8.67796C23.685 7.63714 25.95 7.32567 28.0161 7.70119C28.0169 7.19168 28.198 6.7243 28.4987 6.36009C26.0742 5.84273 23.3808 6.15553 21.0663 7.36055L21.0528 7.36763C21.4667 8.0847 21.3252 7.7913 21.7374 8.67284L21.7401 8.67796Z" fill="white"/>
</g>
<path id="Vector_14" fill-rule="evenodd" clip-rule="evenodd" d="M7.81058 27.4952H28.1897C28.5427 27.4952 28.8293 27.2075 28.8293 26.8531C28.8293 26.4987 28.5427 26.2109 28.1897 26.2109H7.81058C7.45759 26.2109 7.17102 26.4987 7.17102 26.8531C7.17102 27.2075 7.45759 27.4952 7.81058 27.4952Z" fill="#46C8FF"/>
<path id="Vector_15" fill-rule="evenodd" clip-rule="evenodd" d="M30.9785 32.6107C31.4976 33.2503 31.796 34.0041 31.6141 34.9825L17.6071 35.0001L17.6071 34.9992L4.35352 34.9825C4.17168 34.0041 4.46999 33.2503 4.98917 32.6107C5.05086 32.6259 5.11528 32.634 5.18156 32.634H30.7861C30.8524 32.634 30.9168 32.6259 30.9785 32.6107H30.9785ZM6.81742 31.0219C7.78181 30.3072 8.70473 29.6125 8.92521 28.6558H27.0423C27.2627 29.6125 28.1857 30.3072 29.15 31.0219H6.81738H6.81742Z" fill="white"/>
<path id="Vector_16" d="M27.155 16.9218C27.5465 16.9218 27.864 16.6031 27.864 16.2099C27.864 15.8168 27.5465 15.498 27.155 15.498C26.7634 15.498 26.446 15.8168 26.446 16.2099C26.446 16.6031 26.7634 16.9218 27.155 16.9218Z" fill="#46C8FF"/>
<path id="Vector_17" d="M32.0366 16.9218C32.4282 16.9218 32.7456 16.6031 32.7456 16.2099C32.7456 15.8168 32.4282 15.498 32.0366 15.498C31.6451 15.498 31.3277 15.8168 31.3277 16.2099C31.3277 16.6031 31.6451 16.9218 32.0366 16.9218Z" fill="#46C8FF"/>
<path id="Vector_18" d="M21.9926 16.9218C22.3842 16.9218 22.7016 16.6031 22.7016 16.2099C22.7016 15.8168 22.3842 15.498 21.9926 15.498C21.6011 15.498 21.2836 15.8168 21.2836 16.2099C21.2836 16.6031 21.6011 16.9218 21.9926 16.9218Z" fill="#46C8FF"/>
<path id="Vector_19" d="M3.93084 16.9574C4.32241 16.9574 4.63984 16.6387 4.63984 16.2456C4.63984 15.8524 4.32241 15.5337 3.93084 15.5337C3.53928 15.5337 3.22185 15.8524 3.22185 16.2456C3.22185 16.6387 3.53928 16.9574 3.93084 16.9574Z" fill="#46C8FF"/>
<path id="Vector_20" d="M8.81259 16.9574C9.20416 16.9574 9.52158 16.6387 9.52158 16.2456C9.52158 15.8524 9.20416 15.5337 8.81259 15.5337C8.42102 15.5337 8.10359 15.8524 8.10359 16.2456C8.10359 16.6387 8.42102 16.9574 8.81259 16.9574Z" fill="#46C8FF"/>
<path id="Vector_21" d="M13.9749 16.9574C14.3664 16.9574 14.6839 16.6387 14.6839 16.2456C14.6839 15.8524 14.3664 15.5337 13.9749 15.5337C13.5833 15.5337 13.2659 15.8524 13.2659 16.2456C13.2659 16.6387 13.5833 16.9574 13.9749 16.9574Z" fill="#46C8FF"/>
<path id="Vector_22" fill-rule="evenodd" clip-rule="evenodd" d="M16.1678 10.2718H19.7998C20.3871 10.2718 20.8638 9.79311 20.8638 9.20353C20.8638 8.61392 20.3871 8.13525 19.7998 8.13525H16.1678C15.5806 8.13525 15.1038 8.61392 15.1038 9.20353C15.1038 9.79311 15.5806 10.2718 16.1678 10.2718Z" fill="white"/>
</g>
</svg>
