<svg width="439" height="229" viewBox="0 0 439 229" fill="none" xmlns="http://www.w3.org/2000/svg">
<g filter="url(#filter0_d_2_294)">
<rect width="330.468" height="89.4319" transform="matrix(0.992737 -0.120306 0.122243 0.9925 40 79.7573)" fill="white"/>
</g>
<path d="M83.7911 142.695L80.7942 118.379L86.4577 117.693L101.865 132.254L99.1891 132.578L97.194 116.391L103.935 115.573L106.932 139.889L101.268 140.576L85.8612 126.015L88.5366 125.691L90.5317 141.878L83.7911 142.695ZM116.271 123.632L127.564 122.262L128.197 127.404L116.905 128.773L116.271 123.632ZM117.939 133.16L130.656 131.618L131.311 136.933L111.784 139.301L108.787 114.985L127.863 112.672L128.518 117.986L116.252 119.474L117.939 133.16ZM140.8 135.782L129.916 112.423L137.004 111.563L146.235 131.809L142.657 132.243L147.046 110.345L153.37 109.579L162.566 129.829L159.126 130.246L163.376 108.365L169.943 107.569L165.053 132.841L157.687 133.734L149.853 116.527L151.834 116.287L148.167 134.889L140.8 135.782ZM186.026 130.298L183.029 105.982L194.147 104.634C196.371 104.364 198.326 104.491 200.013 105.015C201.723 105.537 203.102 106.427 204.151 107.687C205.196 108.923 205.834 110.468 206.062 112.32C206.287 114.15 206.043 115.789 205.328 117.239C204.613 118.689 203.491 119.883 201.961 120.821C200.451 121.732 198.584 122.323 196.361 122.593L189.064 123.478L191.753 120.119L192.905 129.464L186.026 130.298ZM191.843 120.849L188.396 118.059L195.276 117.224C196.712 117.05 197.739 116.608 198.357 115.899C198.998 115.186 199.25 114.274 199.113 113.163C198.973 112.028 198.505 111.192 197.71 110.653C196.938 110.112 195.834 109.929 194.398 110.103L187.518 110.937L190.186 107.406L191.843 120.849ZM211.304 127.232L208.307 102.916L219.426 101.568C221.65 101.299 223.605 101.426 225.292 101.95C227.001 102.471 228.381 103.362 229.429 104.621C230.475 105.858 231.112 107.402 231.341 109.255C231.566 111.084 231.321 112.724 230.607 114.174C229.889 115.601 228.764 116.771 227.231 117.686C225.718 118.574 223.85 119.153 221.626 119.423L214.33 120.308L217.032 117.054L218.184 126.398L211.304 127.232ZM226.349 125.408L219.212 117.283L226.543 116.394L233.715 124.515L226.349 125.408ZM217.122 117.783L213.675 114.993L220.554 114.159C221.991 113.985 223.018 113.543 223.635 112.833C224.276 112.121 224.528 111.209 224.391 110.097C224.252 108.963 223.784 108.126 222.989 107.588C222.217 107.047 221.113 106.864 219.677 107.038L212.797 107.872L215.465 104.34L217.122 117.783ZM249.349 123.113C247.403 123.348 245.57 123.254 243.848 122.828C242.126 122.402 240.582 121.696 239.214 120.71C237.867 119.698 236.763 118.469 235.903 117.022C235.043 115.575 234.5 113.937 234.275 112.107C234.049 110.278 234.178 108.558 234.662 106.948C235.145 105.338 235.919 103.893 236.984 102.612C238.069 101.305 239.395 100.24 240.962 99.4149C242.53 98.5902 244.287 98.0598 246.232 97.8239C248.201 97.5851 250.035 97.6801 251.733 98.1087C253.455 98.5345 254.99 99.2534 256.337 100.265C257.681 101.254 258.783 102.472 259.643 103.919C260.527 105.363 261.081 107 261.307 108.829C261.532 110.659 261.393 112.391 260.889 114.027C260.406 115.637 259.632 117.082 258.567 118.363C257.503 119.644 256.187 120.697 254.619 121.522C253.075 122.343 251.318 122.874 249.349 123.113ZM248.647 117.416C249.573 117.303 250.411 117.037 251.158 116.618C251.929 116.195 252.567 115.648 253.072 114.975C253.597 114.277 253.969 113.48 254.187 112.584C254.429 111.685 254.486 110.714 254.358 109.672C254.226 108.607 253.936 107.678 253.485 106.887C253.055 106.069 252.502 105.396 251.826 104.867C251.17 104.312 250.416 103.921 249.566 103.695C248.738 103.467 247.861 103.408 246.934 103.521C246.008 103.633 245.159 103.901 244.388 104.323C243.641 104.743 243.004 105.302 242.479 106C241.974 106.672 241.601 107.458 241.359 108.357C241.138 109.23 241.092 110.199 241.224 111.265C241.352 112.307 241.631 113.236 242.061 114.054C242.514 114.869 243.069 115.554 243.725 116.109C244.402 116.638 245.154 117.017 245.981 117.245C246.832 117.471 247.72 117.528 248.647 117.416ZM271.119 106.123L282.342 104.762L282.997 110.077L271.774 111.438L271.119 106.123ZM273.288 119.716L266.408 120.55L263.411 96.2342L282.487 93.921L283.142 99.2358L270.946 100.715L273.288 119.716ZM288.701 117.847L285.704 93.5309L292.584 92.6966L295.581 117.013L288.701 117.847ZM300.475 116.419L297.478 92.1031L304.358 91.2688L306.683 110.131L318.288 108.724L318.96 114.178L300.475 116.419ZM326.169 98.1783L337.461 96.809L338.095 101.95L326.803 103.319L326.169 98.1783ZM327.837 107.707L340.554 106.165L341.209 111.479L321.682 113.847L318.685 89.5314L337.76 87.2182L338.415 92.533L326.15 94.0204L327.837 107.707Z" fill="#910F30"/>
<path d="M143.564 100.437C142.623 100.552 141.735 100.502 140.898 100.289C140.06 100.065 139.314 99.7017 138.66 99.2008C138.006 98.6999 137.465 98.0826 137.036 97.3489C136.618 96.6138 136.353 95.7877 136.24 94.8706C136.127 93.9536 136.184 93.0884 136.41 92.2753C136.648 91.4607 137.024 90.7322 137.537 90.0897C138.063 89.4458 138.705 88.9206 139.465 88.5142C140.224 88.0958 141.073 87.8296 142.015 87.7155C142.92 87.6057 143.791 87.6572 144.627 87.8701C145.462 88.0711 146.191 88.442 146.814 88.983L146.077 89.9245C145.5 89.4625 144.888 89.156 144.241 89.0048C143.592 88.8417 142.91 88.8035 142.196 88.8902C141.445 88.9812 140.764 89.1968 140.153 89.5368C139.541 89.8649 139.026 90.296 138.608 90.8302C138.189 91.3525 137.881 91.9459 137.685 92.6103C137.499 93.2614 137.452 93.9621 137.545 94.7124C137.637 95.4628 137.854 96.1376 138.193 96.7371C138.544 97.3232 138.986 97.8255 139.522 98.2441C140.055 98.6508 140.66 98.9462 141.336 99.1302C142.01 99.3023 142.722 99.3428 143.473 99.2518C144.187 99.1651 144.84 98.9651 145.43 98.6518C146.02 98.3385 146.539 97.8888 146.987 97.3026L147.93 98.0404C147.457 98.7143 146.84 99.2544 146.08 99.6609C145.32 100.067 144.482 100.326 143.564 100.437ZM158.57 85.8166L159.875 85.6585L161.416 98.1638L160.111 98.322L158.57 85.8166ZM152.285 99.2711L150.962 99.4315L149.421 86.9261L150.743 86.7658L152.285 99.2711ZM159.525 92.5365L151.431 93.5181L151.287 92.3569L159.382 91.3753L159.525 92.5365ZM165.826 90.612L172.437 89.8103L172.576 90.9358L165.964 91.7375L165.826 90.612ZM166.68 96.3651L174.203 95.4528L174.344 96.5961L165.498 97.6688L163.957 85.1634L172.534 84.1233L172.675 85.2666L165.42 86.1464L166.68 96.3651ZM182.862 95.6719C181.921 95.786 181.033 95.7366 180.196 95.5238C179.358 95.299 178.612 94.9362 177.958 94.4353C177.304 93.9344 176.763 93.3171 176.334 92.5834C175.917 91.8483 175.651 91.0222 175.538 90.1051C175.425 89.188 175.482 88.3229 175.708 87.5098C175.946 86.6952 176.322 85.9667 176.835 85.3242C177.361 84.6803 178.003 84.1551 178.763 83.7487C179.522 83.3303 180.371 83.0641 181.313 82.95C182.218 82.8402 183.089 82.8917 183.925 83.1046C184.76 83.3055 185.489 83.6765 186.112 84.2174L185.375 85.1589C184.798 84.697 184.186 84.3905 183.539 84.2393C182.89 84.0762 182.208 84.038 181.494 84.1247C180.743 84.2157 180.062 84.4312 179.451 84.7713C178.839 85.0994 178.324 85.5305 177.906 86.0647C177.487 86.587 177.179 87.1803 176.983 87.8448C176.797 88.4959 176.75 89.1966 176.843 89.9469C176.935 90.6972 177.152 91.3721 177.491 91.9716C177.842 92.5577 178.285 93.06 178.82 93.4786C179.354 93.8853 179.958 94.1807 180.634 94.3647C181.308 94.5368 182.02 94.5773 182.771 94.4863C183.485 94.3996 184.138 94.1996 184.728 93.8863C185.318 93.573 185.837 93.1233 186.285 92.5371L187.228 93.2749C186.755 93.9488 186.138 94.4889 185.378 94.8954C184.618 95.3018 183.78 95.5607 182.862 95.6719ZM191.021 91.4188L190.769 89.8175L197.386 81.1096L198.905 80.9255L194.096 87.3832L193.445 88.2782L191.021 91.4188ZM190.26 94.666L188.719 82.1606L190.041 82.0002L191.583 94.5056L190.26 94.666ZM199.249 93.576L193.086 88.0135L193.86 86.9404L200.821 93.3853L199.249 93.576ZM213.122 92.0024C212.181 92.1165 211.286 92.0679 210.438 91.8565C209.6 91.6317 208.848 91.2696 208.182 90.7701C207.527 90.2573 206.985 89.6401 206.557 88.9183C206.14 88.1831 205.875 87.357 205.762 86.44C205.649 85.5229 205.707 84.6638 205.934 83.8625C206.173 83.0479 206.548 82.3194 207.061 81.6769C207.585 81.0211 208.227 80.49 208.987 80.0836C209.746 79.6652 210.601 79.3982 211.554 79.2827C212.495 79.1685 213.385 79.2239 214.223 79.4486C215.059 79.6615 215.804 80.0184 216.458 80.5193C217.125 81.0187 217.666 81.636 218.083 82.3712C218.512 83.1049 218.783 83.9302 218.896 84.8473C219.009 85.7644 218.947 86.6302 218.708 87.4448C218.482 88.2579 218.107 88.9864 217.581 89.6303C217.068 90.2728 216.432 90.8032 215.674 91.2216C214.914 91.628 214.063 91.8883 213.122 92.0024ZM212.977 90.8233C213.727 90.7323 214.403 90.5235 215.003 90.1968C215.614 89.8568 216.123 89.4264 216.531 88.9055C216.949 88.3714 217.25 87.7787 217.436 87.1276C217.62 86.4646 217.666 85.758 217.574 85.0076C217.481 84.2573 217.266 83.5884 216.928 83.0009C216.588 82.4014 216.151 81.8983 215.617 81.4916C215.094 81.0716 214.495 80.7755 213.821 80.6034C213.157 80.418 212.45 80.3707 211.7 80.4617C210.949 80.5528 210.268 80.7683 209.657 81.1083C209.045 81.4364 208.53 81.8676 208.112 82.4017C207.705 82.9226 207.403 83.5152 207.207 84.1797C207.021 84.8308 206.974 85.5315 207.067 86.2818C207.158 87.0202 207.373 87.6891 207.713 88.2886C208.065 88.8866 208.502 89.3956 209.026 89.8156C209.56 90.2223 210.164 90.5177 210.84 90.7017C211.514 90.8738 212.226 90.9144 212.977 90.8233ZM227.683 90.2367C226.087 90.4303 224.773 90.1241 223.743 89.3183C222.713 88.5125 222.087 87.2104 221.865 85.412L220.982 78.2482L222.305 78.0878L223.181 85.198C223.363 86.6749 223.831 87.7242 224.584 88.3459C225.338 88.9677 226.323 89.205 227.538 89.0576C228.765 88.9088 229.668 88.4426 230.249 87.659C230.829 86.8755 231.029 85.7453 230.847 84.2684L229.97 77.1582L231.257 77.0022L232.14 84.166C232.361 85.9644 232.07 87.3777 231.266 88.406C230.474 89.4329 229.279 90.0431 227.683 90.2367ZM238.969 88.7593L237.568 77.3973L233.173 77.9303L233.032 76.787L243.146 75.5605L243.287 76.7039L238.891 77.2369L240.291 88.599L238.969 88.7593ZM253.906 86.9479L252.506 75.5859L248.11 76.1189L247.969 74.9756L258.083 73.7491L258.224 74.8925L253.828 75.4255L255.229 86.7876L253.906 86.9479ZM269.344 72.3835L270.649 72.2253L272.19 84.7307L270.886 84.8889L269.344 72.3835ZM263.059 85.838L261.737 85.9983L260.196 73.4929L261.518 73.3326L263.059 85.838ZM270.3 79.1034L262.205 80.085L262.062 78.9238L270.157 77.9421L270.3 79.1034ZM276.6 77.1789L283.212 76.3771L283.35 77.5026L276.739 78.3044L276.6 77.1789ZM277.454 82.9319L284.977 82.0196L285.118 83.163L276.273 84.2356L274.732 71.7302L283.309 70.6901L283.45 71.8334L276.195 72.7132L277.454 82.9319Z" fill="#910F30"/>
<path d="M169.151 169.933L175.162 169.118L175.466 171.365L169.455 172.18L169.151 169.933ZM170.061 175.041L176.857 174.12L177.171 176.438L167.504 177.749L165.811 165.263L175.247 163.984L175.561 166.303L168.997 167.192L170.061 175.041ZM179.47 176.127L177.778 163.641L183.183 162.909C184.301 162.757 185.289 162.811 186.147 163.07C187.004 163.317 187.699 163.75 188.231 164.368C188.762 164.986 189.092 165.765 189.219 166.704C189.345 167.632 189.234 168.464 188.886 169.202C188.536 169.927 187.981 170.523 187.221 170.989C186.46 171.456 185.521 171.765 184.404 171.916L180.604 172.431L181.717 170.991L182.36 175.735L179.47 176.127ZM187.408 175.051L183.672 170.944L186.758 170.525L190.529 174.628L187.408 175.051ZM181.76 171.312L180.292 170.13L183.931 169.637C184.823 169.516 185.463 169.236 185.852 168.795C186.238 168.343 186.386 167.779 186.294 167.101C186.201 166.411 185.908 165.906 185.416 165.585C184.925 165.264 184.233 165.164 183.341 165.285L179.703 165.778L180.801 164.23L181.76 171.312ZM198.591 173.754C197.628 173.884 196.709 173.851 195.835 173.655C194.971 173.445 194.196 173.09 193.511 172.589C192.825 172.089 192.257 171.469 191.806 170.731C191.367 169.992 191.083 169.152 190.956 168.213C190.829 167.273 190.878 166.389 191.105 165.559C191.343 164.727 191.726 163.979 192.254 163.314C192.793 162.648 193.452 162.104 194.231 161.684C195.008 161.252 195.884 160.969 196.859 160.837C197.941 160.691 198.942 160.749 199.862 161.012C200.791 161.261 201.603 161.708 202.296 162.353L200.673 164.317C200.179 163.887 199.654 163.589 199.098 163.422C198.541 163.243 197.954 163.196 197.335 163.279C196.753 163.358 196.23 163.526 195.769 163.782C195.307 164.039 194.922 164.369 194.613 164.774C194.305 165.18 194.083 165.64 193.947 166.154C193.822 166.668 193.801 167.222 193.881 167.816C193.962 168.411 194.13 168.939 194.387 169.401C194.655 169.861 194.991 170.245 195.396 170.554C195.802 170.862 196.261 171.078 196.774 171.202C197.287 171.327 197.835 171.349 198.418 171.27C199.036 171.187 199.591 170.99 200.082 170.682C200.571 170.361 200.996 169.922 201.357 169.364L203.444 170.825C202.948 171.631 202.285 172.284 201.457 172.784C200.64 173.282 199.685 173.605 198.591 173.754ZM204.516 168.755L204.214 166.525L209.262 165.841L209.564 168.07L204.516 168.755ZM211.249 169.15L210.985 167.206L215.798 158.489L218.83 158.078L214.142 166.778L212.677 166.559L222.506 165.227L222.825 167.581L211.249 169.15ZM218.328 170.861L217.973 168.239L217.743 165.872L217.427 163.536L220.156 163.166L221.147 170.479L218.328 170.861ZM228.018 169.766C227.15 169.883 226.272 169.887 225.386 169.777C224.497 169.655 223.727 169.421 223.074 169.073L223.898 166.709C224.42 166.99 225.01 167.188 225.668 167.305C226.326 167.422 226.976 167.437 227.618 167.35C228.343 167.251 228.895 167.031 229.272 166.689C229.65 166.348 229.804 165.927 229.737 165.428C229.672 164.952 229.437 164.602 229.032 164.379C228.626 164.155 228.013 164.099 227.192 164.21L225.872 164.389L225.614 162.481L228.558 158.067L229.019 159.058L222.473 159.945L222.159 157.627L230.899 156.442L231.152 158.315L228.226 162.726L226.65 162.086L227.488 161.972C229.022 161.764 230.229 161.952 231.107 162.535C231.985 163.119 232.498 163.951 232.644 165.034C232.739 165.735 232.644 166.42 232.36 167.088C232.073 167.745 231.575 168.315 230.866 168.798C230.156 169.282 229.207 169.605 228.018 169.766ZM238.487 168.347C237.619 168.465 236.741 168.468 235.854 168.359C234.966 168.237 234.195 168.002 233.543 167.655L234.367 165.291C234.889 165.571 235.479 165.769 236.137 165.886C236.794 166.003 237.444 166.018 238.086 165.931C238.812 165.833 239.363 165.612 239.741 165.271C240.118 164.929 240.273 164.508 240.206 164.009C240.141 163.533 239.906 163.184 239.5 162.96C239.095 162.736 238.482 162.68 237.661 162.792L236.341 162.97L236.082 161.062L239.026 156.649L239.488 157.64L232.942 158.527L232.627 156.208L241.367 155.023L241.621 156.896L238.695 161.307L237.119 160.667L237.957 160.553C239.491 160.346 240.697 160.533 241.576 161.117C242.454 161.7 242.966 162.533 243.113 163.615C243.208 164.316 243.113 165.001 242.828 165.67C242.542 166.326 242.044 166.896 241.334 167.38C240.625 167.863 239.676 168.186 238.487 168.347ZM246.823 166.999L250.311 154.938L251.229 156.085L244.504 156.996L245.605 155.466L246.064 158.855L243.496 159.203L242.901 154.816L252.908 153.459L253.161 155.332L249.962 166.574L246.823 166.999Z" fill="white"/>
<defs>
<filter id="filter0_d_2_294" x="0" y="1.52588e-05" width="439" height="228.518" filterUnits="userSpaceOnUse" color-interpolation-filters="sRGB">
<feFlood flood-opacity="0" result="BackgroundImageFix"/>
<feColorMatrix in="SourceAlpha" type="matrix" values="0 0 0 0 0 0 0 0 0 0 0 0 0 0 0 0 0 0 127 0" result="hardAlpha"/>
<feOffset dx="10" dy="10"/>
<feGaussianBlur stdDeviation="25"/>
<feComposite in2="hardAlpha" operator="out"/>
<feColorMatrix type="matrix" values="0 0 0 0 0.383333 0 0 0 0 0.0111805 0 0 0 0 0.10722 0 0 0 0.25 0"/>
<feBlend mode="normal" in2="BackgroundImageFix" result="effect1_dropShadow_2_294"/>
<feBlend mode="normal" in="SourceGraphic" in2="effect1_dropShadow_2_294" result="shape"/>
</filter>
</defs>
</svg>
